<?xml version="1.0" encoding="utf-8"?>
<!-- Generator: Adobe Illustrator 26.4.1, SVG Export Plug-In . SVG Version: 6.00 Build 0)  -->
<svg version="1.1" id="图层_1" xmlns="http://www.w3.org/2000/svg" xmlns:xlink="http://www.w3.org/1999/xlink" x="0px" y="0px"
	 viewBox="0 0 786.4 652" style="enable-background:new 0 0 786.4 652;" xml:space="preserve">
<style type="text/css">
	.st0{fill:#FE4592;}
	.st1{fill:#E59CC3;}
	.st2{fill:#F0579A;}
	.st3{fill:#D982AD;}
	.st4{fill:#FED5EB;}
	.st5{fill:#FEBAD8;}
	.st6{fill:#DF3177;}
	.st7{fill:#D772A4;}
	.st8{fill:#FCC1E0;}
	.st9{fill:#A12D72;}
	.st10{fill:#D6518C;}
	.st11{fill:#FE3D8C;}
	.st12{fill:#FE71B1;}
	.st13{fill:#E03178;}
	.st14{fill:#FD71B2;}
	.st15{fill:#FEB8DA;}
	.st16{fill:#E79EC5;}
	.st17{fill:#E7A1C6;}
	.st18{fill:#43147C;}
	.st19{fill:#FE60A4;}
	.st20{fill:#E589BD;}
	.st21{fill:#E65895;}
	.st22{fill:#DC73A6;}
	.st23{fill:none;stroke:#231815;stroke-miterlimit:10;}
	.st24{fill:#FE6DAF;}
	.st25{fill:#C64F8D;}
	.st26{fill:#666666;}
	.st27{fill:#3F3F3F;}
	.st28{opacity:0.22;fill:#36BCDF;}
	.st29{opacity:0.84;fill:#FFFFFF;}
</style>
<g>
	<polygon class="st0" points="222.7,418.3 203,400.1 215.7,397.4 232.2,411.3 	"/>
	<polygon class="st1" points="568.1,220.2 503.4,213.9 502.4,225.2 483.6,225.2 483.6,235.2 460.1,235.2 460.1,255 483.6,255 
		483.6,257.6 515.8,257.6 515.8,265 540.1,265 540.1,257.6 556.9,257.6 556.9,249.6 568.1,249.6 	"/>
	<polygon class="st2" points="543.5,253.9 531.3,261.2 531.3,245 543.5,238.5 	"/>
	<polygon class="st3" points="505.3,241.6 491.5,249.3 491.5,232.7 505.3,225.7 	"/>
	<polygon class="st4" points="526.5,256.2 411.5,233.8 343.4,266.9 445.8,303.3 	"/>
	<polygon class="st5" points="410.6,286.2 397.4,279.4 467.6,244.7 481.8,247.5 	"/>
	<polygon class="st6" points="418.5,327.1 576.1,234.8 576.1,249.5 431,339.5 	"/>
	<polygon class="st6" points="372.1,274.3 533.3,192.4 533.3,211.5 384.6,286.6 	"/>
	<g>
		<polygon class="st7" points="432.4,420.1 414.5,427.4 407.2,383.8 418.7,378.1 		"/>
		<polygon class="st8" points="437.9,435.6 417.2,444 414.5,427.4 432.4,420.1 		"/>
		<polygon class="st0" points="453,429.3 437.9,435.6 432.4,420.1 446.2,414.2 		"/>
		<polygon class="st0" points="443.3,450.6 420.3,459.8 417.3,444 437.9,435.6 		"/>
		<polygon class="st0" points="417.3,444 402.1,450.2 400.8,433.1 414.5,427.4 		"/>
		<polygon class="st9" points="427.4,405 411.8,411.1 409.2,396.9 423.3,392.1 		"/>
	</g>
	<polygon class="st7" points="247.1,402 232.3,389.5 282.1,365.1 291.3,374.4 	"/>
	<polygon class="st8" points="232.2,411.3 215.7,397.4 232.3,389.5 247.1,402 	"/>
	<polygon class="st0" points="215.7,397.4 209.2,383.1 227,374.9 232.3,389.5 	"/>
	<polygon class="st10" points="424.5,381.8 446.1,381.8 446.1,392 423.5,388.5 	"/>
	<g>
		<polygon class="st11" points="248.5,323.8 230.8,321.1 230.1,300.8 247.9,303.5 		"/>
		<polygon class="st11" points="267,346.7 249.2,344.1 248.5,323.8 266.3,326.5 		"/>
		<polygon class="st11" points="285.4,369.7 267.6,367 267,346.7 284.7,349.5 		"/>
		<polygon class="st12" points="249.2,344.1 231.4,341.5 230.8,321.1 248.5,323.8 		"/>
		<polygon class="st12" points="267.6,367.1 249.9,364.4 249.2,344.1 267,346.7 		"/>
		<polygon class="st13" points="255.3,321.5 248.5,323.8 247.9,303.5 254.7,300.8 		"/>
		<polygon class="st14" points="247.9,303.5 230.1,300.8 236.9,298.6 254.7,300.8 		"/>
		<polygon class="st13" points="273.7,344.4 267,346.7 266.3,326.5 273.1,323.9 		"/>
		<polygon class="st14" points="266.3,326.5 248.5,323.8 255.3,321.5 273.1,323.9 		"/>
		<polygon class="st13" points="292.1,366.4 285.4,369.7 284.7,349.5 291.5,346.8 		"/>
		<polygon class="st14" points="284.7,349.5 267,346.7 273.7,344.4 291.5,346.8 		"/>
	</g>
	<g>
		<polygon class="st11" points="265.5,255.2 247.9,255.2 247.9,231.7 265.5,235 		"/>
		<polygon class="st11" points="283.2,278.8 265.5,275.6 265.5,255.2 283.2,258.6 		"/>
		<polygon class="st11" points="300.8,302.3 283.2,299.1 283.2,278.8 300.8,282.1 		"/>
		<polygon class="st12" points="265.5,275.6 247.9,272.4 247.9,252.6 265.5,255.2 		"/>
		<polygon class="st12" points="283.2,299.1 265.5,295.9 265.5,275.6 283.2,278.8 		"/>
		<polygon class="st13" points="272.4,253.3 265.5,255.2 265.5,235 272.4,232.6 		"/>
		<polygon class="st14" points="265.5,235 247.9,231.7 254.7,229.7 272.4,232.6 		"/>
		<polygon class="st13" points="290,276.7 283.2,278.8 283.2,258.6 290.1,256.2 		"/>
		<polygon class="st14" points="283.2,258.6 265.5,255.3 272.4,253.3 290.1,256.2 		"/>
		<polygon class="st13" points="307.7,299.3 300.8,302.3 300.8,282.1 307.7,279.6 		"/>
		<polygon class="st14" points="300.8,282.1 283.2,278.8 290,276.7 307.7,279.6 		"/>
	</g>
	<polyline class="st15" points="402.3,312 401.6,414.3 260.2,388.3 258,290 402.3,312 	"/>
	<polyline class="st4" points="402.3,312 258,290 312.4,263 445.7,279.8 402.3,312 	"/>
	<polygon class="st16" points="445.7,279.8 446.4,379.3 401.6,414.3 402.3,312 	"/>
	<polygon class="st17" points="446.1,392 528.2,335.7 526.5,256.2 445.8,303.3 	"/>
	<polygon class="st18" points="280.9,353.2 259.2,349.5 258.9,334.2 280.9,338.1 	"/>
	<polygon class="st19" points="346.8,376.1 305.7,370.1 305.7,346 346.6,352.5 	"/>
	<polygon class="st18" points="401.8,377.3 378,373 377.3,348.4 402,352 	"/>
	<rect x="445.8" y="303.3" class="st20" width="15.3" height="70.3"/>
	<polygon class="st7" points="443.5,323.7 433.7,332.6 433.5,318 443.5,318 	"/>
	<g>
		<polygon class="st11" points="451.9,325.1 433.5,322.8 433.5,301.6 451.9,303.7 		"/>
		<polygon class="st11" points="470.4,306.2 451.9,303.8 451.9,282.5 470.4,284.8 		"/>
		<polygon class="st11" points="488.9,287.1 470.4,284.8 470.4,263.6 488.9,265.8 		"/>
		<polygon class="st12" points="470.4,327.1 451.9,325 451.9,303.7 470.4,306.2 		"/>
		<polygon class="st14" points="451.9,303.7 433.5,301.6 439.9,298.9 451.9,300.2 		"/>
		<polygon class="st14" points="470.4,284.8 451.9,282.5 458.4,279.9 470.4,281.2 		"/>
		<polygon class="st14" points="488.9,266 470.4,263.7 476.8,261.1 495.5,263 		"/>
		<polygon class="st13" points="495.5,285 488.9,287 488.9,266 495.5,263 		"/>
		<polygon class="st21" points="495.5,305.9 488.9,308 488.9,287 495.5,285 		"/>
		<polygon class="st21" points="477.1,325.1 470.4,327.2 470.4,306.2 477.1,304.1 		"/>
		<polygon class="st12" points="488.9,308 470.4,306.2 470.4,284.6 488.9,287 		"/>
	</g>
	<polygon class="st22" points="446.1,380.3 401.6,414.3 401.6,393.8 445.7,361.6 	"/>
	<polygon class="st12" points="378.1,410 401.6,414.3 401.6,393.8 377.8,390 	"/>
	<polygon class="st12" points="260.2,388.3 281.6,392.2 281.6,374.9 259.8,371.3 	"/>
	<g>
		<polygon class="st9" points="533.7,343.4 522.5,354.9 501.2,347.5 513.5,337.1 		"/>
		<polygon class="st7" points="548.6,347.8 538,360.3 522.5,354.9 533.7,343.4 		"/>
		<polygon class="st8" points="554.2,365.4 538,360.3 548.6,347.8 563.1,351.8 		"/>
		<polygon class="st0" points="545.6,378.3 528.6,371.9 538,360.3 554.2,365.4 		"/>
		<polygon class="st0" points="563.1,351.8 548.6,347.8 555.6,339.6 569,343.1 		"/>
		<polygon class="st0" points="567.1,369.9 554.2,365.4 563.1,351.8 575.4,355.4 		"/>
	</g>
	<path class="st23" d="M583.4,311.2"/>
	<path class="st23" d="M508.7,382.6"/>
	<polygon class="st15" points="431.4,290.3 295.5,271.3 312.4,262.9 445.8,279.9 	"/>
	<g>
		<polygon class="st11" points="310.9,225.2 293.3,222 293.3,201.7 310.9,205 		"/>
		<polygon class="st11" points="328.5,248.8 310.9,245.6 310.9,225.2 328.5,228.6 		"/>
		<polygon class="st11" points="346.2,272.4 328.5,269.1 328.5,248.8 346.2,252.1 		"/>
		<polygon class="st12" points="310.9,245.6 293.3,242.4 293.3,222 310.9,225.2 		"/>
		<polygon class="st12" points="328.5,269.1 310.9,265.9 310.9,245.6 328.5,248.8 		"/>
		<polygon class="st13" points="317.8,223.3 310.9,225.2 310.9,205 317.8,202.6 		"/>
		<polygon class="st14" points="310.9,205 293.3,201.7 300.1,199.7 317.8,202.6 		"/>
		<polygon class="st13" points="335.4,246.8 328.5,248.8 328.5,228.6 335.5,226.2 		"/>
		<polygon class="st14" points="328.5,228.6 310.9,225.2 317.8,223.3 335.5,226.2 		"/>
		<polygon class="st13" points="353.1,269.3 346.2,272.4 346.2,252.1 353.1,249.7 		"/>
		<polygon class="st14" points="346.2,252.1 328.5,248.8 335.4,246.8 353.1,249.7 		"/>
	</g>
	<polygon class="st15" points="304.6,280.3 283.6,277.3 295.9,271.2 315.1,274 	"/>
	<polygon class="st15" points="422.7,296.9 399.3,293.9 409.7,286.8 433,289.3 	"/>
	<polygon class="st22" points="528.2,335.7 483.6,369.7 483.6,349.1 527.7,317 	"/>
	<g>
		<polygon class="st11" points="447.9,393.7 431.3,391.6 431.3,372.5 447.9,374.5 		"/>
		<polygon class="st11" points="464.5,376.7 447.9,374.6 447.9,355.6 464.5,357.5 		"/>
		<polygon class="st11" points="481.1,359.6 464.5,357.6 464.5,338.5 481.1,340.5 		"/>
		<polygon class="st12" points="464.5,395.5 447.9,393.6 447.9,374.5 464.5,376.7 		"/>
		<polygon class="st14" points="447.9,374.5 431.3,372.5 437.1,370.2 447.9,371.3 		"/>
		<polygon class="st14" points="464.5,357.6 447.9,355.6 453.7,353.2 464.5,354.3 		"/>
		<polygon class="st14" points="481.1,340.7 464.5,338.7 470.3,336.3 486.9,338.1 		"/>
		<polygon class="st13" points="487,357.7 481.1,359.6 481.1,340.7 486.9,338.1 		"/>
		<polygon class="st21" points="487,376.5 481.1,378.3 481.1,359.5 487,357.7 		"/>
		<polygon class="st21" points="470.5,393.7 464.5,395.6 464.5,376.7 470.5,374.9 		"/>
		<polygon class="st12" points="481.1,378.3 464.5,376.7 464.5,357.4 481.1,359.6 		"/>
	</g>
	<polygon class="st24" points="533.3,192.7 378.4,271.2 371.7,270.5 529.2,192.2 	"/>
	<g>
		<polygon class="st11" points="408,281.2 389.5,278.9 389.5,257.6 408,259.8 		"/>
		<polygon class="st11" points="426.5,262.2 408,259.9 408,238.6 426.5,240.8 		"/>
		<polygon class="st11" points="445,243.2 426.5,240.9 426.5,219.6 445,221.9 		"/>
		<polygon class="st12" points="426.5,283.2 408,281.1 408,259.8 426.5,262.2 		"/>
		<polygon class="st14" points="408,259.8 389.5,257.6 396,255 408,256.2 		"/>
		<polygon class="st14" points="426.5,240.9 408,238.6 414.4,236 426.5,237.3 		"/>
		<polygon class="st14" points="445,222 426.5,219.8 432.9,217.2 451.5,219.1 		"/>
		<polygon class="st13" points="451.6,241 445,243.1 445,222 451.5,219.1 		"/>
		<polygon class="st21" points="451.6,261.9 445,264.1 445,243 451.6,241 		"/>
		<polygon class="st21" points="433.1,281.2 426.5,283.2 426.5,262.3 433.1,260.2 		"/>
		<polygon class="st12" points="445,264.1 426.5,262.2 426.5,240.7 445,243.1 		"/>
	</g>
	<polygon class="st6" points="554,216.8 521.5,233.6 521.5,217.2 554,200.7 	"/>
	<polygon class="st6" points="576.1,221.7 543.5,238.5 543.5,222 576.1,205.6 	"/>
	<polygon class="st6" points="576.1,236.2 565.4,242.5 565.4,227.2 576.1,221.7 	"/>
	<polygon class="st20" points="518.1,324 503.9,334.3 503.8,315.2 518.1,305.4 	"/>
	<polygon class="st25" points="518.1,343.4 503.9,354.2 503.9,334.3 518.1,324 	"/>
	<g>
		<polygon class="st26" points="251.1,357.9 244,352 236.9,346.1 233.3,346.8 225,360.3 232.1,366.2 239.2,372.1 233.3,379.3 
			227.4,386.4 221.5,393.5 215.5,400.6 226.2,413.2 229.8,412.4 235.7,405.3 241.6,398.2 247.5,391.1 253.5,384 264.1,396.6 
			267.7,395.9 273.6,388.7 279.5,381.6 272.4,375.7 265.3,369.8 258.2,363.9 		"/>
		<polygon class="st26" points="246.4,305.8 240.4,312.9 234.5,320 228.6,327.1 222.7,334.2 233.3,346.8 236.9,346.1 242.8,339 
			248.7,331.8 254.7,324.7 260.6,317.6 266.5,310.5 272.4,303.4 265.3,297.5 258.2,291.6 254.7,292.3 		"/>
		<polygon class="st26" points="312.7,312.9 305.6,307 298.5,301 291.4,295.1 284.3,289.2 280.8,289.9 272.4,303.4 279.6,309.3 
			286.7,315.3 293.8,321.2 300.9,327.1 311.6,339.7 315.1,339 321,331.9 327,324.8 319.9,318.8 		"/>
		<polygon class="st26" points="315.1,339 311.6,339.7 303.3,353.2 297.3,360.3 291.4,367.4 285.5,374.5 279.5,381.6 290.2,394.2 
			293.8,393.5 299.7,386.4 305.6,379.3 311.5,372.2 317.5,365 323.4,357.9 329.3,350.8 322.2,344.9 		"/>
	</g>
	<g>
		
			<rect x="225.3" y="350.6" transform="matrix(0.7681 0.6403 -0.6403 0.7681 284.8098 -66.7259)" class="st27" width="18.5" height="18.5"/>
		
			<rect x="239.5" y="362.4" transform="matrix(0.7681 0.6403 -0.6403 0.7681 295.6992 -73.0825)" class="st27" width="18.5" height="18.5"/>
		
			<rect x="253.7" y="374.3" transform="matrix(-0.7681 -0.6403 0.6403 -0.7681 219.343 846.537)" class="st27" width="18.5" height="18.5"/>
		
			<rect x="246.6" y="296.1" transform="matrix(-0.6403 0.7681 -0.7681 -0.6403 654.23 304.3015)" class="st27" width="18.5" height="18.5"/>
		
			<rect x="234.8" y="310.3" transform="matrix(-0.6403 0.7681 -0.7681 -0.6403 645.7056 336.7339)" class="st27" width="18.5" height="18.5"/>
		
			<rect x="222.9" y="324.5" transform="matrix(0.6403 -0.7681 0.7681 0.6403 -172.8613 298.3588)" class="st27" width="18.5" height="18.5"/>
		
			<rect x="301.1" y="317.4" transform="matrix(-0.7681 -0.6403 0.6403 -0.7681 339.6122 776.3314)" class="st27" width="18.5" height="18.5"/>
		
			<rect x="286.9" y="305.6" transform="matrix(-0.7681 -0.6403 0.6403 -0.7681 322.0609 746.2641)" class="st27" width="18.5" height="18.5"/>
		
			<rect x="272.7" y="293.7" transform="matrix(0.7681 0.6403 -0.6403 0.7681 259.3836 -110.2836)" class="st27" width="18.5" height="18.5"/>
		
			<rect x="279.8" y="371.9" transform="matrix(0.6403 -0.7681 0.7681 0.6403 -188.8274 359.1042)" class="st27" width="18.5" height="18.5"/>
		
			<rect x="291.6" y="357.7" transform="matrix(0.6403 -0.7681 0.7681 0.6403 -173.641 363.0958)" class="st27" width="18.5" height="18.5"/>
		
			<rect x="303.5" y="343.5" transform="matrix(-0.6403 0.7681 -0.7681 -0.6403 783.9594 338.399)" class="st27" width="18.5" height="18.5"/>
		<g>
			
				<rect x="227.6" y="376.7" transform="matrix(0.6403 -0.7681 0.7681 0.6403 -211.2171 320.7485)" class="st27" width="18.5" height="18.5"/>
			
				<rect x="215.8" y="390.9" transform="matrix(0.6403 -0.7681 0.7681 0.6403 -226.4035 316.757)" class="st27" width="18.5" height="18.5"/>
		</g>
		
			<rect x="244.7" y="315.5" transform="matrix(0.7681 0.6403 -0.6403 0.7681 283.0002 -94.8372)" class="st28" width="55.5" height="55.5"/>
		
			<rect x="289.3" y="331.6" transform="matrix(-0.7681 -0.6403 0.6403 -0.7681 309.5449 793.8829)" class="st29" width="18.5" height="18.5"/>
	</g>
	<polygon class="st0" points="244,416.4 232.2,411.3 247.1,402 261.8,405.6 	"/>
</g>
</svg>
